<svg xmlns="http://www.w3.org/2000/svg" viewBox="0 0 155 23.193">
    <g transform="translate(-440.407 70.019)">
        <path
            d="M477.732-52.792c-.455.414-.948.551-2.247.551H471.66c-1.3,0-1.793-.138-2.247-.551-.768-.69-1.242-1.7-1.242-6.348s.473-5.657,1.242-6.347c.454-.415.947-.553,2.247-.553h3.825c1.3,0,1.792.138,2.247.553.77.69,1.124,1.6,1.162,3.981h-2.207c-.059-1.735-.238-2.227-.453-2.425-.157-.138-.317-.216-.985-.216H471.9c-.67,0-.827.078-.985.216-.217.2-.493.809-.493,4.791s.276,4.594.493,4.791c.158.139.315.217.985.217h3.352c.668.02.828-.078.985-.217.216-.2.394-.591.453-2.642h2.228c-.1,2.741-.414,3.509-1.183,4.2"
            transform="translate(4.605 0.66)" />
        <path
            d="M480.42-53.3c-.69-.689-.887-1.518-.887-4.71s.2-4.022.887-4.711a2.787,2.787,0,0,1,2.11-.612h3.133a2.785,2.785,0,0,1,2.111.612c.687.689.886,1.518.886,4.711s-.2,4.021-.886,4.71a2.785,2.785,0,0,1-2.111.612H482.53a2.787,2.787,0,0,1-2.11-.612m1.458-1.419c.139.139.3.2.907.2h2.621c.613,0,.771-.059.909-.2.2-.2.295-.571.295-3.291s-.1-3.1-.295-3.292c-.139-.139-.3-.2-.909-.2h-2.621c-.611,0-.768.058-.907.2-.2.2-.295.571-.295,3.292s.1,3.094.295,3.291"
            transform="translate(6.49 1.109)" />
        <path
            d="M489.48-52.687V-63.331h2.051v1.28c1.34-1.1,1.773-1.3,2.662-1.3h1.675a2.352,2.352,0,0,1,1.833.611c.414.415.631.928.631,2.405v7.649h-2.05V-60.2a1.381,1.381,0,0,0-.276-1.025c-.217-.217-.414-.3-1.1-.3h-1.38a4.278,4.278,0,0,0-1.99.591v8.24H489.48"
            transform="translate(8.14 1.106)" />
        <path
            d="M504.645-53.163a.635.635,0,0,1-.729.512h-1.3a.636.636,0,0,1-.73-.512l-3.509-10.172h2.248l2.6,8.32h.237l2.564-8.32h2.128l-3.509,10.172"
            transform="translate(9.615 1.109)" />
        <path
            d="M517.838-52.687V-63.331h2.051v1.556c1.045-1.1,1.617-1.577,2.464-1.577h1.262v2.109h-1.5a5.64,5.64,0,0,0-2.227.4v8.161h-2.051"
            transform="translate(12.844 1.106)" />
        <path
            d="M526.884-49.73a2.225,2.225,0,0,1-1.736-.551,2.706,2.706,0,0,1-.57-2.09h2.05c.019.473.078.651.217.788.118.119.276.159.808.159h2.584c.571,0,.787-.04.923-.178.16-.157.219-.335.219-1.32v-2.208c-1.361,1.084-1.794,1.281-2.661,1.281H527.3a2.74,2.74,0,0,1-2.169-.651c-.574-.571-.848-1.2-.848-4.1s.274-3.529.848-4.1a2.74,2.74,0,0,1,2.169-.651h1.42c.866,0,1.3.2,2.661,1.3v-1.281h2.051V-53.2c0,1.892-.181,2.405-.67,2.9a2.664,2.664,0,0,1-2.072.571h-3.8m4.494-6.525v-4.652a4.324,4.324,0,0,0-2.071-.631H527.79c-.651,0-.906.078-1.084.256-.3.295-.374.571-.374,2.68s.078,2.385.374,2.68c.178.178.434.256,1.084.256h1.6a4.119,4.119,0,0,0,1.991-.591"
            transform="translate(13.912 1.106)" />
        <path
            d="M552.092-66.04c1.3,0,1.8.138,2.249.551.767.69,1.242,1.7,1.242,6.348s-.474,5.658-1.242,6.348c-.453.413-.947.551-2.249.551h-3.942c-1.3,0-1.793-.139-2.247-.551-.768-.69-1.244-1.7-1.244-6.348s.476-5.658,1.244-6.348c.454-.414.945-.551,2.247-.551h3.942M547.4-54.35c.157.138.315.217.985.217h3.469c.672.02.828-.079.987-.217.217-.2.492-.808.492-4.791s-.275-4.594-.492-4.791c-.16-.138-.316-.217-.987-.217h-3.469c-.67,0-.828.079-.985.217-.219.2-.493.808-.493,4.791s.274,4.592.493,4.791"
            transform="translate(17.293 0.66)" />
        <path
            d="M556.146-52.687V-63.331H558.2v1.28c1.338-1.1,1.773-1.3,2.662-1.3h1.674a2.353,2.353,0,0,1,1.834.611c.413.415.631.928.631,2.405v7.649h-2.051V-60.2a1.387,1.387,0,0,0-.275-1.025c-.218-.217-.415-.3-1.105-.3h-1.379a4.271,4.271,0,0,0-1.99.591v8.24h-2.052"
            transform="translate(19.198 1.106)" />
        <path
            d="M516.639-57.342c.177,0,.237-.078.237-.237v-.532c0-3.115-.2-3.943-.888-4.633a2.9,2.9,0,0,0-2.108-.591h-2.918a2.785,2.785,0,0,0-2.109.611c-.69.69-.887,1.519-.887,4.711s.2,4.022.887,4.711a2.785,2.785,0,0,0,2.109.611h3.45a2.212,2.212,0,0,0,1.736-.532c.532-.532.689-1.123.729-2.779h-1.99c-.041.947-.079,1.182-.218,1.321-.118.118-.256.2-.71.2H511.2c-.611,0-.75-.04-.906-.2s-.277-.571-.3-2.662v-1.636c.019-1.814.1-2.169.275-2.346.159-.159.316-.217.927-.217h2.445c.611,0,.786.079.907.2.176.177.295.571.295,2.366h-3.766v1.636h5.56"
            transform="translate(11.206 1.109)" />
        <path
            d="M542.827-57.342c.176,0,.237-.078.237-.237v-.532c0-3.115-.2-3.943-.888-4.633a2.9,2.9,0,0,0-2.108-.591h-2.918a2.787,2.787,0,0,0-2.11.611c-.689.69-.886,1.519-.886,4.711s.2,4.022.886,4.711a2.787,2.787,0,0,0,2.11.611h3.45a2.212,2.212,0,0,0,1.736-.532c.532-.532.689-1.123.729-2.779h-1.99c-.041.947-.078,1.182-.218,1.321-.118.118-.256.2-.71.2h-2.76c-.611,0-.75-.04-.906-.2s-.277-.571-.3-2.662v-1.636c.019-1.814.1-2.169.275-2.346.159-.159.316-.217.927-.217h2.444c.612,0,.787.079.908.2.176.177.3.571.3,2.366h-3.766v1.636h5.56"
            transform="translate(15.55 1.109)" />
        <path
            d="M574.385-57.342c.176,0,.238-.078.238-.237v-.532c0-3.115-.2-3.943-.89-4.633a2.9,2.9,0,0,0-2.108-.591h-2.918a2.787,2.787,0,0,0-2.11.611c-.689.69-.886,1.519-.886,4.711s.2,4.022.886,4.711a2.787,2.787,0,0,0,2.11.611h3.45a2.217,2.217,0,0,0,1.737-.532c.529-.532.688-1.123.729-2.779h-1.992c-.04.947-.078,1.182-.217,1.321-.118.118-.256.2-.711.2h-2.758c-.611,0-.75-.04-.906-.2s-.277-.571-.3-2.662v-1.636c.019-1.814.1-2.169.275-2.346.158-.159.316-.217.927-.217h2.445c.611,0,.787.079.907.2.176.177.3.571.3,2.366h-3.766v1.636h5.56"
            transform="translate(20.784 1.109)" />
        <g transform="translate(440.407 -70.019)">
            <path
                d="M440.993-46.836h13.983a.586.586,0,0,0,.586-.586v-5.949a.586.586,0,0,0-.586-.586h-6.429a.587.587,0,0,1-.586-.586v-7.83a.586.586,0,0,1,.586-.586h4.7a.586.586,0,0,0,.586-.586v-5.885a.587.587,0,0,0-.586-.586H440.993a.587.587,0,0,0-.586.586v22.01a.586.586,0,0,0,.586.586"
                transform="translate(-440.407 70.019)" />
            <path
                d="M454.884-47.413a.587.587,0,0,0,.586.586h6.417a.586.586,0,0,0,.585-.586l0-21.983a.617.617,0,0,0-.586-.621l-8.154,0a.587.587,0,0,0-.585.586v5.871a.587.587,0,0,0,.585.588h.558a.585.585,0,0,1,.586.586l.012,14.974"
                transform="translate(-438.295 70.019)" />
        </g>
    </g>
</svg>