<svg class="w-6 h-6 ml-auto cursor-pointer text-gray-900 hover:bg-gray-50 hover:rounded-full" viewBox="0 0 512 512" fill="none" xmlns="http://www.w3.org/2000/svg"><path d="M289.94 256L384.94 161C389.448 156.499 391.984 150.391 391.99 144.021C391.996 137.65 389.47 131.538 384.97 127.03C380.469 122.521 374.361 119.985 367.991 119.979C361.62 119.974 355.508 122.499 351 127L256 222L161 127C156.491 122.491 150.376 119.958 144 119.958C137.623 119.958 131.508 122.491 127 127C122.491 131.508 119.958 137.623 119.958 144C119.958 150.376 122.491 156.491 127 161L222 256L127 351C122.491 355.508 119.958 361.623 119.958 368C119.958 374.376 122.491 380.491 127 385C131.508 389.508 137.623 392.041 144 392.041C150.376 392.041 156.491 389.508 161 385L256 290L351 385C355.508 389.508 361.623 392.041 368 392.041C374.376 392.041 380.491 389.508 385 385C389.508 380.491 392.041 374.376 392.041 368C392.041 361.623 389.508 355.508 385 351L289.94 256Z" fill="currentColor"/></svg>