<svg class="w-16" viewBox="0 0 43 42" fill="none" xmlns="http://www.w3.org/2000/svg"><path d="M21.4984 40.9553C32.4742 40.9553 41.3718 32.0577 41.3718 21.0819C41.3718 10.1061 32.4742 1.2085 21.4984 1.2085C10.5226 1.2085 1.625 10.1061 1.625 21.0819C1.625 32.0577 10.5226 40.9553 21.4984 40.9553Z" fill="white" stroke="#7443DE" stroke-width="1.33333" stroke-miterlimit="10"/><path d="M21.498 34.6849C29.0109 34.6849 35.1014 28.5944 35.1014 21.0815C35.1014 13.5685 29.0109 7.47803 21.498 7.47803C13.985 7.47803 7.89453 13.5685 7.89453 21.0815C7.89453 28.5944 13.985 34.6849 21.498 34.6849Z" fill="#7443DE"/><path d="M30.406 17.7124C30.2358 17.2662 29.887 16.8682 29.4619 16.5812C28.2359 15.8022 26.3672 15.7463 25.1039 16.4508C24.4146 16.8022 23.9625 17.4982 23.8211 18.2137C23.5654 19.3898 23.6314 20.7894 24.5374 21.6709C25.595 22.5972 27.1318 22.8021 28.5001 22.4219C28.5644 22.4092 28.771 22.3575 28.9133 22.2822L28.9539 22.2653C29.3781 22.0891 29.7837 21.8012 30.086 21.4118C30.7845 20.3915 30.8319 18.8623 30.4069 17.7133L30.406 17.7124ZM28.1792 20.3542C28.1317 20.5769 27.981 20.8089 27.7448 20.8919C27.368 21.0578 26.8583 21.0121 26.5094 20.8182C26.2173 20.6133 26.1792 20.2712 26.1411 19.9469C26.1123 19.3077 26.0666 18.6311 26.2452 18.046C26.3858 17.6836 26.7728 17.5913 27.1225 17.5643C27.4908 17.5643 27.8481 17.6201 28.075 17.9165C28.2164 18.129 28.2071 18.4076 28.235 18.6582C28.2249 19.1866 28.2723 19.8165 28.1783 20.3542H28.1792Z" fill="white"/><path d="M16.9996 20.9297C16.688 20.9111 16.3392 20.9382 16.0377 20.9009L16.0471 17.6461L16.0657 17.619L16.9996 17.6097C17.0098 17.0814 17.0182 16.5149 16.9895 16.0331L13.4341 16.0229L12.8481 16.0331C12.8388 16.5242 12.8388 17.0983 12.8481 17.5995C13.169 17.6097 13.4705 17.5995 13.7821 17.6283V20.7798L13.7728 20.9094L12.8388 20.928C12.8194 21.4462 12.8194 21.9475 12.8388 22.4572H16.9988V20.928L16.9996 20.9297Z" fill="white"/><path d="M27.4722 23.1545C27.0759 23.7201 26.5763 24.2671 26.0302 24.693C26.0107 24.7218 25.954 24.7108 25.9362 24.6837C25.6991 24.5355 25.4451 24.4153 25.2182 24.2671C25.5205 23.9056 25.8126 23.544 26.0395 23.1444H25.7465C25.5112 23.489 25.2665 23.8497 24.9549 24.1554C24.5391 23.9886 24.1623 23.8404 23.7373 23.7286L23.6907 23.693C23.7567 23.5059 23.8787 23.3298 23.9168 23.1444H23.6619L23.407 23.6456C22.8508 23.5254 22.2377 23.4602 21.6713 23.4229C21.6425 23.34 21.6806 23.2189 21.6425 23.1444H21.3978C21.3783 23.2561 21.4257 23.34 21.369 23.4331C20.7839 23.4602 20.2183 23.5254 19.6713 23.6372L19.4156 23.1444C19.3216 23.1444 19.2175 23.1266 19.1523 23.1545L19.3877 23.7015L19.3597 23.7286C18.9338 23.8505 18.5206 23.9987 18.1142 24.1647L18.0761 24.146C17.8119 23.8582 17.557 23.5449 17.3496 23.229C17.303 23.0707 17.1142 23.163 17.0101 23.1444C17.2361 23.5525 17.5384 23.914 17.8399 24.2858C17.585 24.4348 17.331 24.5999 17.0659 24.7218C16.5003 24.2951 15.9728 23.7388 15.5757 23.1545C15.4623 23.1367 15.3877 23.1444 15.2734 23.1545C15.9525 24.2112 17.0101 25.1384 18.1142 25.6854C18.1142 25.6854 18.1142 25.6769 18.1244 25.6769C18.1328 25.6769 18.1514 25.6939 18.1328 25.704C18.8788 26.0656 19.6713 26.3247 20.5104 26.4364C23.407 26.8158 26.1716 25.5838 27.7744 23.1545C27.6906 23.1444 27.567 23.1444 27.4722 23.1545ZM23.5383 23.9894L23.5662 23.9708C23.9727 24.0631 24.3588 24.1935 24.7178 24.3687C24.4155 24.7108 24.0285 25.0089 23.6704 25.2586C23.4536 25.3882 23.236 25.5287 23.0091 25.6388L22.6044 25.4627L22.6323 25.3983C22.9727 24.9445 23.275 24.4797 23.5383 23.9886V23.9894ZM21.6797 23.7108C22.2183 23.721 22.7559 23.7769 23.2555 23.8963L23.2656 23.9242C23.0023 24.4246 22.6712 24.9072 22.3131 25.3611C22.1522 25.3797 22.0015 25.3162 21.8415 25.3061L21.6806 25.2866C21.662 24.7396 21.6518 24.2578 21.6806 23.71L21.6797 23.7108ZM19.8593 23.8776C20.3495 23.7853 20.8593 23.7108 21.3868 23.7108L21.3969 25.279C21.198 25.3238 20.9812 25.3238 20.7924 25.3712C20.4054 24.9157 20.0854 24.4238 19.8119 23.914L19.8593 23.8768V23.8776ZM18.3394 24.3789C18.7086 24.2019 19.0947 24.0715 19.4901 23.9708L19.5291 23.9809C19.8017 24.4907 20.1421 24.9724 20.4808 25.4542C20.3495 25.5287 20.1887 25.5736 20.0566 25.649C19.4342 25.3433 18.839 24.9166 18.3394 24.406V24.3789ZM19.557 25.964C18.7645 25.759 18.0287 25.4068 17.3488 24.9259V24.8971C17.5757 24.7591 17.8017 24.6109 18.0473 24.5076C18.585 25.0376 19.1413 25.4356 19.7458 25.8149C19.6984 25.8708 19.6222 25.9267 19.557 25.964ZM23.0574 26.0833C22.0574 26.2976 20.9439 26.306 19.944 26.0656C19.9253 26.0198 19.9905 26.0097 20.0193 25.9826C20.8965 25.417 22.264 25.417 23.1234 26.0275C23.1513 26.0833 23.076 26.0656 23.0565 26.0833H23.0574ZM23.9633 25.8242L23.5197 25.9631C23.4443 25.9259 23.3783 25.87 23.3114 25.8141L23.33 25.7861C23.9337 25.4348 24.4807 25.008 24.9997 24.4974C25.2546 24.599 25.5001 24.7387 25.7271 24.8954C25.1987 25.3145 24.5857 25.5914 23.9625 25.8234L23.9633 25.8242Z" fill="white"/><path d="M15.5584 15.3205C15.7853 15.0047 16.0393 14.6998 16.3221 14.4026C16.5668 14.1706 16.7938 13.9488 17.0579 13.7811C17.3035 13.9386 17.577 14.0699 17.8124 14.2181C17.5203 14.5779 17.2188 14.9412 17.0012 15.3298C17.0673 15.3586 17.19 15.3493 17.2849 15.3298C17.5203 14.9869 17.7751 14.644 18.0774 14.3383C18.4821 14.4873 18.8792 14.644 19.295 14.7557L19.3322 14.793L19.0969 15.3306C19.201 15.3501 19.267 15.3408 19.3703 15.3306C19.455 15.174 19.5202 14.9979 19.615 14.8396C20.1629 14.9615 20.7386 15.025 21.3237 15.0436C21.3991 15.1097 21.3424 15.2485 21.3703 15.3315H21.6252C21.6531 15.2401 21.6158 15.1368 21.6531 15.0546C22.2009 15.0258 22.7759 14.9699 23.3059 14.8404L23.3516 14.8506L23.6065 15.3315C23.692 15.3315 23.8046 15.351 23.8707 15.3129L23.6344 14.7769L23.6539 14.7583C24.0866 14.6465 24.493 14.4797 24.9079 14.3137C25.2009 14.6194 25.4735 14.981 25.7199 15.3323C25.8232 15.3323 25.9265 15.3425 26.0027 15.3137C25.8893 15.1105 25.747 14.9073 25.5971 14.7295C25.4735 14.5534 25.3423 14.3967 25.1814 14.2299V14.1825L25.8418 13.8032L25.9375 13.7659C26.5124 14.2011 27.0213 14.7295 27.4278 15.3137C27.5412 15.3137 27.636 15.3527 27.73 15.3052C26.465 13.4145 24.3804 12.1986 22.1264 12.0242L22.1163 12.042L22.0976 12.0242C21.8428 11.9971 21.5312 11.9861 21.2577 12.0132C21.1544 12.0047 21.0316 12.0132 20.9088 12.0242C18.6447 12.1995 16.5601 13.3586 15.2578 15.3323C15.3526 15.323 15.4653 15.3611 15.5601 15.323L15.5584 15.3205ZM19.4736 14.5059L19.4355 14.5144C19.0486 14.4136 18.6709 14.2917 18.3128 14.1351L18.3306 14.0792C18.8496 13.5881 19.3966 13.18 20.0003 12.865C20.1426 12.9209 20.284 12.9666 20.4245 13.0326L20.3966 13.1046C20.0376 13.5508 19.7548 14.0318 19.4728 14.5059H19.4736ZM21.3508 14.7557C21.0875 14.793 20.8513 14.7473 20.5862 14.7269C20.3322 14.6897 20.0113 14.6626 19.7564 14.5779C20.0299 14.0699 20.3508 13.5779 20.7378 13.1249L21.3415 13.2071C21.3695 13.688 21.3508 14.2452 21.3508 14.7557ZM21.6429 14.7659C21.6243 14.2731 21.6336 13.727 21.6429 13.2164C21.8318 13.1893 22.0392 13.1605 22.228 13.1334C22.5964 13.5957 22.9554 14.0707 23.2009 14.5779C22.6912 14.6998 22.1713 14.765 21.6438 14.765L21.6429 14.7659ZM24.653 14.1165C24.2839 14.2731 23.9062 14.4221 23.5015 14.5068C23.2094 14.0157 22.8885 13.5246 22.5286 13.0496C22.6607 12.9776 22.8216 12.9217 22.963 12.8472C23.5777 13.1529 24.1713 13.5881 24.6708 14.0877L24.653 14.1165ZM23.4448 12.5314C24.2373 12.7363 24.9824 13.0877 25.6615 13.5695L25.6429 13.6067L24.9926 13.9683H24.9452C24.4456 13.4687 23.8605 13.0335 23.2661 12.6897C23.2847 12.6245 23.3796 12.578 23.4448 12.5322V12.5314ZM23.068 12.4382V12.4569C22.2467 13.0487 20.9165 13.1046 20.0494 12.5576C20.0011 12.5204 19.9072 12.5026 19.8979 12.4374C20.8978 12.2062 22.0773 12.1876 23.068 12.4374V12.4382ZM17.3128 13.5881C17.9072 13.1529 18.5676 12.8286 19.2662 12.6059C19.295 12.5771 19.3128 12.55 19.3509 12.55V12.5686C19.4262 12.5864 19.483 12.5026 19.549 12.5576C19.6057 12.6051 19.6726 12.6423 19.7192 12.688C19.1341 13.0487 18.5583 13.4755 18.0308 13.9937C17.776 13.9022 17.5406 13.7625 17.3137 13.605V13.5872L17.3128 13.5881Z" fill="white"/><path d="M21.3591 21.0032C20.4718 21.2445 19.509 21.0608 18.8681 20.3918C18.7936 20.2987 18.7453 20.1886 18.6699 20.0963L17.3965 20.1057C17.377 20.8558 17.3677 21.7187 17.3965 22.4604L18.8105 22.4511L18.8291 22.0057C18.99 22.0794 19.15 22.1725 19.3109 22.2555C20.2923 22.6636 21.5556 22.7567 22.5276 22.2555C23.2355 21.8668 23.6131 21.1166 23.509 20.308C23.4057 19.5214 22.6504 18.8068 21.8866 18.6129L19.603 17.9541L19.4337 17.8703C19.3583 17.806 19.3109 17.723 19.3295 17.6205C19.509 17.3149 19.9239 17.408 20.2355 17.4156C20.896 17.5088 21.575 17.7314 21.962 18.3343C22.3769 18.3343 22.8578 18.3428 23.3108 18.3241C23.3295 17.5646 23.3024 16.8974 23.2922 16.1278C22.868 16.1176 22.349 16.1176 21.9247 16.1379C21.9061 16.248 21.9425 16.4046 21.896 16.5164L21.4624 16.2844C20.4244 15.8492 18.9714 15.8035 18.0281 16.48C17.4143 16.9245 17.2263 17.723 17.3863 18.4266C17.5091 19.0938 18.1501 19.5849 18.7639 19.8161C19.603 20.1124 20.4811 20.3266 21.3312 20.6137C21.4159 20.6518 21.5285 20.7356 21.5099 20.8372C21.5099 20.9194 21.4243 20.9668 21.3591 21.0023V21.0032Z" fill="white"/><path d="M14.8361 30.0647C14.8361 30.5126 14.5888 30.7556 14.0681 30.7556C13.5745 30.7556 13.3179 30.5126 13.3179 30.0875V30.0189H13.7938V30.1138C13.7938 30.3034 13.8945 30.3754 14.0546 30.3754C14.2332 30.3754 14.3331 30.3034 14.3331 30.0494V29.5676H14.3238C14.2366 29.7192 14.091 29.7988 13.8666 29.7988C13.4957 29.7988 13.3086 29.5829 13.3086 29.1917V28.7057C13.3086 28.2806 13.5787 28.0376 14.0723 28.0376C14.566 28.0376 14.8361 28.2806 14.8361 28.7057V30.0638V30.0647ZM14.3331 29.1578V28.6794C14.3331 28.4897 14.2324 28.4212 14.0723 28.4212C13.9123 28.4212 13.8115 28.4897 13.8115 28.6794V29.1578C13.8115 29.3475 13.9123 29.4194 14.0723 29.4194C14.2324 29.4194 14.3331 29.3475 14.3331 29.1578Z" fill="white"/><path d="M15.1287 28.7057C15.1287 28.2806 15.3988 28.0376 15.8925 28.0376C16.3861 28.0376 16.6562 28.2806 16.6562 28.7057V30.0867C16.6562 30.5117 16.3861 30.7547 15.8925 30.7547C15.3988 30.7547 15.1287 30.5117 15.1287 30.0867V28.7057ZM15.6317 30.1138C15.6317 30.3034 15.7324 30.3754 15.8925 30.3754C16.0525 30.3754 16.1532 30.3034 16.1532 30.1138V28.6794C16.1532 28.4897 16.0525 28.4178 15.8925 28.4178C15.7324 28.4178 15.6317 28.4897 15.6317 28.6794V30.1138Z" fill="white"/><path d="M16.9412 28.7057C16.9412 28.2806 17.2113 28.0376 17.705 28.0376C18.1986 28.0376 18.4687 28.2806 18.4687 28.7057V30.0867C18.4687 30.5117 18.1986 30.7547 17.705 30.7547C17.2113 30.7547 16.9412 30.5117 16.9412 30.0867V28.7057ZM17.4442 30.1138C17.4442 30.3034 17.5449 30.3754 17.705 30.3754C17.865 30.3754 17.9657 30.3034 17.9657 30.1138V28.6794C17.9657 28.4897 17.865 28.4178 17.705 28.4178C17.5449 28.4178 17.4442 28.4897 17.4442 28.6794V30.1138Z" fill="white"/><path d="M19.1053 28.4025C19.4939 28.4025 19.5811 28.2467 19.659 28.0688H19.9977V30.725H19.4948V28.6988H19.1061V28.4025H19.1053Z" fill="white"/><path d="M21.0867 28.8765V29.2787H20.6016V28.8765H21.0867ZM21.0867 30.3227V30.7249H20.6016V30.3227H21.0867Z" fill="white"/><path d="M22.1937 28.4178C22.0337 28.4178 21.9329 28.4897 21.9329 28.6794V28.9639H21.457V28.7057C21.457 28.2806 21.7127 28.0376 22.2072 28.0376C22.7017 28.0376 22.9574 28.2806 22.9574 28.7057C22.9574 29.0587 22.8016 29.3432 22.3351 29.7564C22.0379 30.0223 21.9558 30.1476 21.9558 30.2873C21.9558 30.306 21.9558 30.3254 21.96 30.3441H22.9117V30.7234H21.457V30.3974C21.457 30.1011 21.5849 29.8775 21.96 29.5515C22.3444 29.2137 22.4536 29.0054 22.4536 28.7209C22.4536 28.4821 22.3529 28.4169 22.1928 28.4169L22.1937 28.4178Z" fill="white"/><path d="M23.2227 28.7057C23.2227 28.2806 23.4928 28.0376 23.9864 28.0376C24.48 28.0376 24.7501 28.2806 24.7501 28.7057V30.0867C24.7501 30.5117 24.48 30.7547 23.9864 30.7547C23.4928 30.7547 23.2227 30.5117 23.2227 30.0867V28.7057ZM23.7256 30.1138C23.7256 30.3034 23.8264 30.3754 23.9864 30.3754C24.1464 30.3754 24.2472 30.3034 24.2472 30.1138V28.6794C24.2472 28.4897 24.1464 28.4178 23.9864 28.4178C23.8264 28.4178 23.7256 28.4897 23.7256 28.6794V30.1138Z" fill="white"/><path d="M25.3867 28.4025C25.7754 28.4025 25.8626 28.2467 25.9405 28.0688H26.2792V30.725H25.7762V28.6988H25.3876V28.4025H25.3867Z" fill="white"/><path d="M27.3391 29.8673V30.1137C27.3391 30.3033 27.4399 30.3719 27.5999 30.3719C27.76 30.3719 27.8607 30.3033 27.8607 30.1137V29.5294C27.8607 29.3398 27.76 29.2678 27.5999 29.2678C27.4399 29.2678 27.3391 29.3398 27.3391 29.5294V29.609H26.8633L26.9547 28.0688H28.2815V28.4482H27.4035L27.362 29.0815H27.3713C27.4628 28.9562 27.6042 28.8876 27.8057 28.8876C28.1765 28.8876 28.3637 29.1035 28.3637 29.4947V30.0866C28.3637 30.5116 28.108 30.7547 27.6135 30.7547C27.119 30.7547 26.8633 30.5116 26.8633 30.0866V29.8664H27.3391V29.8673Z" fill="white"/><path d="M11.0044 8.89426L11.3677 9.26173C11.8054 9.70372 11.7885 10.2202 11.2746 10.7291C10.7606 11.238 10.2441 11.2481 9.80719 10.8062L8.38554 9.36927C7.94778 8.92728 7.96472 8.41078 8.47868 7.9019C8.99264 7.39386 9.50914 7.38286 9.94605 7.82485L10.2119 8.09326L9.71743 8.58266L9.42447 8.28631C9.22887 8.08902 9.05022 8.11781 8.88341 8.28208C8.71661 8.44719 8.68613 8.62584 8.88172 8.82313L10.3584 10.3159C10.554 10.5132 10.7284 10.481 10.8952 10.3159C11.062 10.1508 11.0959 9.97637 10.9011 9.77908L10.5108 9.38451L11.0053 8.8951L11.0044 8.89426Z" fill="#7443DE"/><path d="M12.4338 6.88036L13.2924 6.34777L13.5854 6.81939L12.7268 7.35198L13.3271 8.31894L14.4076 7.64833L14.7005 8.11996L12.9944 9.17921L10.9453 5.87614L12.6515 4.81689L12.9444 5.28852L11.864 5.95912L12.4347 6.87951L12.4338 6.88036Z" fill="#7443DE"/><path d="M17.2611 7.1043C17.1909 7.02217 17.146 6.97306 17.0452 6.67332L16.8496 6.09501C16.7345 5.75294 16.5516 5.67419 16.2349 5.78088L15.9936 5.86216L16.4999 7.36171L15.8022 7.5971L14.5584 3.9147L15.6109 3.55908C16.334 3.31522 16.7387 3.4888 16.9309 4.05695L17.0283 4.34653C17.1561 4.72501 17.0918 5.01629 16.8217 5.24236L16.8251 5.25252C17.2146 5.25591 17.4212 5.49045 17.5507 5.87486L17.7429 6.44301C17.803 6.62167 17.8538 6.75122 17.9698 6.86468L17.2594 7.1043H17.2611ZM15.4339 4.20513L15.8158 5.33635L16.0884 5.24406C16.3484 5.156 16.4754 5.00782 16.3755 4.71316L16.2527 4.34992C16.1638 4.08659 16.0173 4.00784 15.7692 4.09082L15.4331 4.20428L15.4339 4.20513Z" fill="#7443DE"/><path d="M18.5312 2.80215L20.7962 2.57861L20.8504 3.13152L20.0841 3.20688L20.411 6.52349L19.6786 6.59546L19.3517 3.27885L18.5854 3.35421L18.5312 2.8013V2.80215Z" fill="#7443DE"/><path d="M22.7066 2.63623L23.4407 2.69804L23.113 6.57179L22.3789 6.50998L22.7066 2.63623Z" fill="#7443DE"/><path d="M25.7928 4.8832L26.7098 5.13467L26.5633 5.6698L25.6463 5.41833L25.2221 6.96613L24.5117 6.77139L25.5396 3.02295L27.4185 3.53776L27.2712 4.07288L26.1027 3.75282L25.7928 4.88235V4.8832Z" fill="#7443DE"/><path d="M29.2186 4.28271L29.8816 4.60362L28.1856 8.10143L27.5234 7.78052L29.2194 4.28271H29.2186Z" fill="#7443DE"/><path d="M31.3463 7.41616L32.1574 8.01903L31.8264 8.46525L31.0152 7.86238L30.3361 8.776L31.3573 9.53466L31.0262 9.98088L29.4141 8.78362L31.7324 5.6626L33.3445 6.85986L33.0135 7.30609L31.9923 6.54742L31.3463 7.41701V7.41616Z" fill="#7443DE"/><path d="M34.891 8.29932L35.6446 9.18753C36.1204 9.74891 36.0959 10.2442 35.6217 10.6464L34.1222 11.9182C33.648 12.3204 33.1552 12.2637 32.6794 11.7023L31.9258 10.8141L34.891 8.30016V8.29932ZM34.9435 9.22055L32.825 11.0164L33.0934 11.3331C33.245 11.5118 33.4118 11.5541 33.6243 11.3746L35.1662 10.0673C35.3779 9.88777 35.3635 9.71588 35.2119 9.53722L34.9435 9.22055Z" fill="#7443DE"/><path d="M10.2425 33.8419L9.83101 34.1967C9.33568 34.6243 8.79463 34.5692 8.2976 33.9935C7.80057 33.4177 7.82682 32.8749 8.32216 32.4474L9.93262 31.0587C10.428 30.6311 10.969 30.6862 11.466 31.2619C11.9631 31.8377 11.9368 32.3805 11.4415 32.8081L11.1409 33.0672L10.6625 32.5125L10.9944 32.2264C11.2154 32.0358 11.1985 31.8453 11.0376 31.6591C10.8767 31.4719 10.6913 31.4279 10.4703 31.6184L8.79801 33.0604C8.57702 33.2509 8.59819 33.4372 8.75906 33.6234C8.91994 33.8097 9.10114 33.8588 9.32213 33.6683L9.76497 33.2865L10.2434 33.8411L10.2425 33.8419Z" fill="#7443DE"/><path d="M12.6238 33.8525C12.9862 33.3073 13.5391 33.226 14.1724 33.6468C14.8058 34.0676 14.9446 34.6095 14.5822 35.154L13.4053 36.9253C13.0429 37.4706 12.49 37.5519 11.8566 37.1311C11.2233 36.7102 11.0844 36.1683 11.4468 35.6239L12.6238 33.8525ZM12.0692 36.0862C11.9074 36.3292 11.9752 36.5079 12.1801 36.6442C12.385 36.7805 12.5755 36.7737 12.7372 36.5307L13.9599 34.6916C14.1216 34.4486 14.0539 34.27 13.849 34.1337C13.6441 33.9973 13.4536 34.0041 13.2918 34.2471L12.0692 36.0862Z" fill="#7443DE"/><path d="M17.1662 38.2181L17.1797 38.2215L18.4583 35.5628L19.4964 35.8507L18.4032 39.7913L17.6979 39.5957L18.482 36.7702L18.4684 36.7668L17.1823 39.4535L16.477 39.2579L16.7073 36.3206L16.6937 36.3172L15.9207 39.1038L15.2695 38.9226L16.3626 34.9819L17.4007 35.2698L17.167 38.2181H17.1662Z" fill="#7443DE"/><path d="M23.2889 36.8547L23.3084 37.3856C23.3329 38.0393 22.9663 38.4102 22.1916 38.439L21.8258 38.4525L21.8825 39.9876L21.1086 40.0164L20.957 35.9293L22.0967 35.8869C22.8706 35.8581 23.2643 36.2002 23.2881 36.8539L23.2889 36.8547ZM21.7529 36.4856L21.8046 37.8691L22.1704 37.8556C22.4168 37.8462 22.5472 37.748 22.5362 37.4559L22.5133 36.8429C22.5023 36.5508 22.3651 36.4627 22.1187 36.472L21.7529 36.4856Z" fill="#7443DE"/><path d="M28.0235 38.7796L27.2784 39.015L26.9279 38.3478L26.021 38.634L26.1167 39.3816L25.4385 39.5959L24.9609 35.4579L26.0422 35.1167L28.0244 38.7805L28.0235 38.7796ZM25.9474 38.0743L26.6595 37.8499L25.6883 35.9871L25.6747 35.9914L25.9474 38.0743Z" fill="#7443DE"/><path d="M29.135 34.8517L29.1232 34.8593L30.7828 37.3131L30.2053 37.7035L27.9141 34.3157L28.7193 33.7713L30.7379 35.3614L30.7497 35.3538L29.3789 33.3259L29.9504 32.939L32.2417 36.3267L31.5829 36.7721L29.1359 34.8509L29.135 34.8517Z" fill="#7443DE"/><path d="M33.5884 33.1398L30.8594 32.1449L31.3767 31.5217L33.1836 32.2634L33.1929 32.2524L32.1328 30.6115L32.6053 30.0425L34.0828 32.5429L35.1252 33.409L34.6298 34.0051L33.5875 33.1389L33.5884 33.1398Z" fill="#7443DE"/></svg>