<svg class="w-6 h-6 text-gray-400" viewBox="0 0 512 512" fill="none" xmlns="http://www.w3.org/2000/svg"><path d="M256 240C300.183 240 336 204.183 336 160C336 115.817 300.183 80 256 80C211.817 80 176 115.817 176 160C176 204.183 211.817 240 256 240Z" fill="currentColor"/><path d="M285.76 363.522L256 274.562L226.24 363.522V363.682L256 393.443L285.76 363.682V363.522Z" fill="currentColor"/><path d="M288.001 256H283.521L318.881 361.92C320.034 364.858 320.315 368.065 319.69 371.159C319.066 374.252 317.563 377.1 315.361 379.36L262.721 432H400.001C404.24 431.988 408.303 430.298 411.301 427.3C414.299 424.302 415.988 420.24 416.001 416V384C415.956 350.066 402.456 317.535 378.461 293.54C354.466 269.545 321.935 256.045 288.001 256Z" fill="currentColor"/><path d="M196.64 379.36C194.438 377.1 192.934 374.252 192.31 371.159C191.686 368.065 191.967 364.858 193.12 361.92L228.48 256H224C190.066 256.045 157.535 269.545 133.54 293.54C109.545 317.535 96.0449 350.066 96 384V416C96.0122 420.24 97.7019 424.302 100.7 427.3C103.698 430.298 107.76 431.988 112 432H249.44C249.44 432 239.214 421.934 196.64 379.36Z" fill="currentColor"/></svg>