<svg class="w-6 h-6 text-gray-400" viewBox="0 0 24 24" fill="none" xmlns="http://www.w3.org/2000/svg"><path d="M6.17847 5.76911C6.17945 5.63532 6.22526 5.50572 6.30858 5.40104C6.3919 5.29636 6.50791 5.22263 6.63807 5.19166L11.9412 4.01319C12.0267 3.99552 12.1149 3.99552 12.2004 4.01319L17.5035 5.19166C17.6189 5.21792 17.7237 5.27831 17.8043 5.36498C17.8849 5.45165 17.9375 5.56057 17.9553 5.67756C17.9731 5.79455 17.9553 5.91419 17.9041 6.02091C17.853 6.12762 17.7709 6.21646 17.6685 6.27585V8.0023L18.1694 8.50904C18.212 8.54871 18.2411 8.6007 18.2528 8.65775C18.2644 8.7148 18.2579 8.77405 18.2342 8.82723C18.2121 8.88103 18.1745 8.92709 18.1263 8.95959C18.0781 8.9921 18.0213 9.0096 17.9631 9.00989H16.7788C16.7422 9.00899 16.7062 9.00099 16.6727 8.98632C16.6395 8.97582 16.6092 8.95765 16.5843 8.93329V8.9274C16.5813 8.92713 16.5784 8.92581 16.5763 8.92365C16.5741 8.9215 16.5728 8.91865 16.5725 8.91561H16.5666C16.5423 8.89072 16.5241 8.86044 16.5136 8.82723C16.4996 8.7956 16.4916 8.76163 16.49 8.72706V8.70349C16.4916 8.66892 16.4996 8.63495 16.5136 8.60332C16.5241 8.57011 16.5423 8.53983 16.5666 8.51494H16.5725C16.5725 8.50904 16.5725 8.50904 16.5784 8.50904L17.0793 8.0023V6.44083L15.6062 6.76491V9.30451C15.6052 9.80072 15.4997 10.2912 15.2967 10.7439C15.0937 11.1967 14.7976 11.6017 14.4277 11.9325V12.6514C14.4483 12.6566 14.4681 12.6646 14.4867 12.6749L12.0708 14.9729L9.65494 12.6749C9.67348 12.6646 9.69329 12.6566 9.71387 12.6514V11.9325C9.34401 11.6017 9.04793 11.1967 8.84489 10.7439C8.64185 10.2912 8.5364 9.80072 8.5354 9.30451V6.76491L6.63807 6.34656C6.50791 6.31558 6.3919 6.24186 6.30858 6.13718C6.22526 6.0325 6.17945 5.9029 6.17847 5.76911Z" fill="#C1C6CE"/><path d="M19.1416 19.3215V19.9107C19.1416 20.067 19.0795 20.2169 18.969 20.3274C18.8585 20.4379 18.7087 20.4999 18.5524 20.4999H5.58925C5.43298 20.4999 5.28311 20.4379 5.1726 20.3274C5.0621 20.2169 5.00002 20.067 5.00002 19.9107V19.3215C4.99778 18.3924 5.17936 17.4721 5.53432 16.6135C5.88927 15.755 6.41059 14.9751 7.06823 14.3189C7.50011 13.8894 7.98527 13.5171 8.51185 13.2111L11.6642 16.2103C11.7731 16.3161 11.919 16.3753 12.0708 16.3753C12.2227 16.3753 12.3685 16.3161 12.4774 16.2103L15.6239 13.2111C16.6933 13.8332 17.5808 14.7248 18.1981 15.7969C18.8153 16.8691 19.1406 18.0843 19.1416 19.3215Z" fill="#C1C6CE"/></svg>