<svg class="text-orange-500 w-4 h-4 cursor-pointer" viewBox="0 0 512 512" fill="none" xmlns="http://www.w3.org/2000/svg"><path d="M58.79 439.13C55.6402 438.045 52.9076 436.004 50.9733 433.292C49.039 430.579 47.9996 427.331 48 424C48 350.9 62.68 292.44 91.65 250.23C126.65 199.23 181.86 171.77 256 168.36V87.9996C256 84.8666 256.92 81.8026 258.646 79.1878C260.372 76.5729 262.827 74.5223 265.708 73.2902C268.588 72.0581 271.767 71.6988 274.85 72.2569C277.933 72.815 280.784 74.2659 283.05 76.4296L459.05 244.43C460.614 245.923 461.859 247.719 462.709 249.708C463.56 251.696 463.999 253.837 463.999 256C463.999 258.162 463.56 260.303 462.709 262.291C461.859 264.28 460.614 266.076 459.05 267.57L283.05 435.57C280.784 437.733 277.933 439.184 274.85 439.742C271.767 440.3 268.588 439.941 265.708 438.709C262.827 437.477 260.372 435.426 258.646 432.811C256.92 430.197 256 427.133 256 424V344.23C211 345.59 177 352.88 149.93 366.87C120.68 381.99 99.47 404.58 76.61 433.87C74.5592 436.496 71.7398 438.416 68.5452 439.362C65.3507 440.309 61.9403 440.234 58.79 439.15V439.13Z" fill="currentColor"/></svg>