<svg class="w-6 h-6 pl-1 !text-orange-500" viewBox="0 0 512 512" fill="none" xmlns="http://www.w3.org/2000/svg"><path d="M133 440.002C126.86 439.99 120.829 438.381 115.5 435.332C103.5 428.532 96.04 415.332 96.04 401.002V111.002C96.04 96.6318 103.5 83.4718 115.5 76.6718C120.956 73.5361 127.154 71.9236 133.447 72.0028C139.739 72.0819 145.895 73.8499 151.27 77.1218L399.12 225.482C404.285 228.721 408.544 233.218 411.495 238.553C414.447 243.888 415.995 249.885 415.995 255.982C415.995 262.079 414.447 268.076 411.495 273.41C408.544 278.745 404.285 283.243 399.12 286.482L151.23 434.882C145.729 438.207 139.428 439.977 133 440.002Z" fill="currentColor"/></svg>